<?xml version="1.0" standalone="no"?>
<!DOCTYPE svg PUBLIC "-//W3C//DTD SVG 20010904//EN"
 "http://www.w3.org/TR/2001/REC-SVG-20010904/DTD/svg10.dtd">
<svg version="1.0" xmlns="http://www.w3.org/2000/svg"
 width="225.000000pt" height="225.000000pt" viewBox="0 0 225.000000 225.000000"
 preserveAspectRatio="xMidYMid meet">
<metadata>
Created by potrace 1.16, written by Peter Selinger 2001-2019
</metadata>
<g transform="translate(0.000000,225.000000) scale(0.100000,-0.100000)"
fill="#fff" stroke="none">
<path d="M573 2199 c-131 -22 -277 -103 -374 -205 -65 -69 -99 -124 -131 -214
l-23 -65 0 -595 0 -595 23 -63 c70 -194 242 -351 447 -409 91 -25 1027 -32
1166 -8 264 45 473 236 524 480 12 56 15 171 15 590 0 301 -4 547 -10 585 -6
39 -27 99 -52 150 -55 114 -169 230 -279 283 -146 72 -135 71 -724 73 -291 1
-553 -2 -582 -7z m1161 -177 c88 -33 135 -63 197 -129 67 -70 103 -137 118
-218 14 -75 15 -1016 1 -1100 -30 -186 -202 -344 -407 -375 -49 -8 -236 -10
-560 -8 -470 4 -490 5 -553 26 -36 12 -82 32 -104 45 -69 43 -145 128 -184
206 l-37 75 0 575 0 576 37 78 c64 133 180 223 334 261 48 12 154 14 579 13
511 -2 521 -3 579 -25z"/>
<path d="M1664 1810 c-38 -15 -64 -59 -64 -107 0 -92 98 -137 169 -77 92 77 5
229 -105 184z"/>
<path d="M970 1637 c-359 -122 -465 -567 -198 -830 105 -104 212 -147 363
-147 144 0 265 51 363 154 95 98 142 214 142 346 0 223 -150 420 -369 484 -82
24 -220 21 -301 -7z m318 -171 c67 -34 124 -91 159 -158 24 -46 28 -64 28
-143 0 -77 -4 -98 -26 -146 -57 -121 -165 -191 -304 -197 -113 -5 -180 21
-262 103 -53 53 -64 71 -83 134 -41 134 -7 256 96 350 78 71 136 92 249 88 74
-3 99 -8 143 -31z"/>
</g>
</svg>
