<?xml version="1.0" standalone="no"?>
<!DOCTYPE svg PUBLIC "-//W3C//DTD SVG 20010904//EN"
 "http://www.w3.org/TR/2001/REC-SVG-20010904/DTD/svg10.dtd">
<svg version="1.0" xmlns="http://www.w3.org/2000/svg"
 width="225.000000pt" height="225.000000pt" viewBox="0 0 225.000000 225.000000"
 preserveAspectRatio="xMidYMid meet">
<metadata>
Created by potrace 1.16, written by Peter Selinger 2001-2019
</metadata>
<g transform="translate(0.000000,225.000000) scale(0.100000,-0.100000)"
fill="#fff" stroke="none">
<path d="M299 1956 c-78 -21 -143 -79 -181 -161 l-23 -50 0 -620 0 -620 24
-53 c27 -61 103 -134 159 -154 54 -19 1640 -19 1694 0 56 20 132 93 159 154
l24 53 0 620 0 620 -24 52 c-13 29 -43 71 -68 94 -86 79 -22 74 -918 76 -612
1 -811 -1 -846 -11z m1635 -197 c14 -11 24 -24 21 -29 -7 -11 -821 -580 -830
-580 -9 0 -823 569 -830 580 -3 5 7 18 21 29 27 21 32 21 809 21 777 0 782 0
809 -21z m-1241 -539 c321 -224 406 -280 432 -280 26 0 111 56 432 280 220
154 403 280 407 280 3 0 6 -219 6 -486 l0 -486 -29 -29 -29 -29 -787 0 -787 0
-29 29 -29 29 0 486 c0 267 3 486 6 486 4 0 187 -126 407 -280z"/>
</g>
</svg>
