<?xml version="1.0" standalone="no"?>
<!DOCTYPE svg PUBLIC "-//W3C//DTD SVG 20010904//EN"
 "http://www.w3.org/TR/2001/REC-SVG-20010904/DTD/svg10.dtd">
<svg version="1.0" xmlns="http://www.w3.org/2000/svg"
 width="512.000000pt" height="512.000000pt" viewBox="0 0 512.000000 512.000000"
 preserveAspectRatio="xMidYMid meet">

<g transform="translate(0.000000,512.000000) scale(0.100000,-0.100000)"
fill="#ffffff" stroke="none">
<path d="M0 2560 l0 -1830 2560 0 2560 0 0 1830 0 1830 -2560 0 -2560 0 0
-1830z m4462 1313 c-187 -192 -357 -364 -377 -383 -21 -19 -350 -354 -732
-743 -383 -389 -708 -714 -724 -722 -39 -21 -108 -19 -144 3 -17 11 -333 327
-702 703 -370 376 -851 865 -1069 1087 l-396 402 2242 0 2242 0 -340 -347z
m-3499 -567 l786 -793 -741 -714 c-408 -393 -763 -734 -790 -757 l-48 -44 0
1551 c0 853 1 1551 3 1551 2 0 357 -357 790 -794z m3985 -1532 l-3 -776 -787
757 -787 757 787 795 787 794 3 -775 c1 -427 1 -1125 0 -1552z m-2823 367
c155 -154 267 -258 295 -272 38 -20 60 -24 140 -24 80 0 102 4 140 24 28 14
141 118 297 274 l253 251 107 -105 c60 -58 408 -394 775 -747 l668 -642 -2240
0 -2240 0 111 108 c553 534 1435 1381 1439 1382 2 0 117 -112 255 -249z"/>
</g>
</svg>
