<?xml version="1.0" standalone="no"?>
<!DOCTYPE svg PUBLIC "-//W3C//DTD SVG 20010904//EN"
 "http://www.w3.org/TR/2001/REC-SVG-20010904/DTD/svg10.dtd">
<svg version="1.0" xmlns="http://www.w3.org/2000/svg"
 width="225.000000pt" height="225.000000pt" viewBox="0 0 225.000000 225.000000"
 preserveAspectRatio="xMidYMid meet">

<g transform="translate(0.000000,225.000000) scale(0.100000,-0.100000)"
fill="#000000" stroke="none">
<path d="M0 1125 l0 -1125 1125 0 1125 0 0 1125 0 1125 -1125 0 -1125 0 0
-1125z m889 425 c123 -171 227 -312 231 -315 4 -2 110 136 236 308 l230 312
152 3 152 3 0 -736 0 -735 -170 0 -170 0 -2 463 -3 462 -188 -262 -188 -263
-47 1 -47 0 -185 265 -185 265 -3 -465 -2 -466 -170 0 -170 0 0 735 0 735 153
0 152 0 224 -310z"/>
</g>
</svg>
