<?xml version="1.0" standalone="no"?>
<!DOCTYPE svg PUBLIC "-//W3C//DTD SVG 20010904//EN"
 "http://www.w3.org/TR/2001/REC-SVG-20010904/DTD/svg10.dtd">
<svg version="1.0" xmlns="http://www.w3.org/2000/svg"
 width="64.000000pt" height="64.000000pt" viewBox="0 0 64.000000 64.000000"
 preserveAspectRatio="xMidYMid meet">

<g transform="translate(0.000000,64.000000) scale(0.100000,-0.100000)"
fill="#fff" stroke="none">
<path d="M402 484 c-74 -62 -140 -114 -148 -114 -20 0 -114 -71 -114 -86 0 -7
-9 -15 -20 -19 -10 -3 -31 -20 -45 -36 -19 -24 -25 -42 -25 -82 -1 -30 -7 -60
-16 -72 -13 -18 -13 -20 3 -27 10 -3 43 -7 73 -7 68 -1 119 23 140 67 8 17 25
33 36 36 12 3 24 14 28 23 3 10 17 33 31 52 13 18 23 37 20 40 -2 4 50 70 116
147 65 76 119 143 119 147 0 22 -23 47 -43 46 -13 0 -75 -46 -155 -115z m175
81 c2 -6 -42 -65 -98 -130 -140 -167 -123 -154 -159 -120 -16 16 -30 34 -29
39 1 17 252 227 268 224 8 -2 16 -8 18 -13z m-273 -264 l47 -48 -25 -29 -25
-29 -56 55 -56 55 28 22 c15 13 30 23 33 23 3 0 27 -22 54 -49z m-69 -71 c32
-33 57 -62 54 -64 -3 -3 -34 24 -69 59 -36 36 -60 65 -54 65 5 0 36 -27 69
-60z m-59 9 c3 -6 1 -16 -5 -22 -18 -18 -13 -29 11 -22 15 6 20 4 15 -6 -3 -8
-8 -22 -12 -31 -12 -29 11 -20 24 9 11 24 14 25 28 11 22 -23 5 -67 -37 -95
-24 -17 -47 -23 -88 -23 -51 0 -54 1 -48 23 3 12 6 44 6 70 0 37 5 53 25 72
25 26 69 33 81 14z"/>
<path d="M230 315 c-8 -9 -8 -15 -2 -15 12 0 26 19 19 26 -2 2 -10 -2 -17 -11z"/>
<path d="M265 279 c-4 -6 -5 -13 -2 -16 7 -7 27 6 27 18 0 12 -17 12 -25 -2z"/>
<path d="M299 244 c-12 -14 -11 -16 5 -13 11 2 21 10 24 17 5 17 -13 15 -29
-4z"/>
</g>
</svg>
