<?xml version="1.0" standalone="no"?>
<!DOCTYPE svg PUBLIC "-//W3C//DTD SVG 20010904//EN"
 "http://www.w3.org/TR/2001/REC-SVG-20010904/DTD/svg10.dtd">
<svg version="1.0" xmlns="http://www.w3.org/2000/svg"
 width="512.000000pt" height="512.000000pt" viewBox="0 0 512.000000 512.000000"
 preserveAspectRatio="xMidYMid meet">

<g transform="translate(0.000000,512.000000) scale(0.100000,-0.100000)"
fill="#fff" stroke="none">
<path d="M2118 4575 c-160 -44 -287 -163 -336 -317 -12 -35 -40 -156 -63 -270
l-43 -207 -666 -3 -666 -3 -76 -38 c-133 -65 -221 -182 -254 -337 -20 -97 -20
-2424 0 -2521 36 -167 138 -281 297 -330 59 -18 133 -19 2212 -19 1862 0 2160
2 2215 15 177 42 325 178 368 338 11 43 14 263 14 1252 0 1323 3 1259 -62
1374 -43 76 -142 170 -219 209 -98 49 -166 62 -316 62 l-133 0 0 38 c0 59 -20
152 -41 195 -66 128 -209 194 -368 168 -152 -25 -227 -122 -238 -308 l-6 -93
-158 0 c-88 0 -159 3 -159 8 0 4 -22 113 -50 241 -31 145 -59 255 -75 287 -64
130 -174 220 -320 260 -69 19 -787 19 -857 -1z m842 -249 c48 -25 88 -64 110
-107 10 -19 44 -156 75 -305 62 -300 66 -312 102 -346 l25 -23 692 -5 691 -5
68 -33 c80 -40 130 -100 147 -175 14 -68 14 -2322 -1 -2381 -15 -60 -59 -110
-127 -143 l-57 -28 -2134 -3 c-1419 -1 -2146 1 -2171 8 -50 13 -86 43 -113 93
l-22 42 0 1210 c0 1318 -2 1268 57 1339 62 75 11 70 809 76 698 5 718 6 739
25 12 11 26 28 31 37 5 9 34 135 64 280 31 145 62 284 70 309 22 65 89 126
164 150 14 4 188 7 386 6 330 -2 363 -4 395 -21z"/>
<path d="M2340 3434 c-245 -45 -400 -107 -573 -232 -96 -69 -237 -214 -299
-308 -96 -145 -170 -331 -199 -503 -15 -85 -15 -307 0 -392 103 -607 622
-1049 1231 -1049 609 0 1130 444 1231 1049 14 85 14 307 0 392 -65 385 -307
723 -651 908 -88 47 -182 82 -300 111 -65 17 -123 23 -250 25 -91 2 -176 1
-190 -1z m318 -249 c384 -62 696 -341 808 -720 37 -128 44 -330 16 -465 -65
-311 -254 -559 -537 -700 -152 -77 -265 -103 -445 -103 -180 0 -293 26 -445
103 -268 134 -446 356 -531 660 -15 52 -18 100 -18 240 0 161 3 182 28 265 61
204 179 382 335 507 229 183 507 259 789 213z"/>
<path d="M2385 3000 c-198 -32 -381 -134 -506 -284 -65 -79 -139 -219 -164
-311 -22 -84 -30 -256 -16 -340 47 -268 216 -490 461 -604 484 -225 1048 74
1141 604 14 84 6 256 -16 340 -42 158 -163 337 -291 433 -174 131 -408 193
-609 162z m259 -256 c97 -25 174 -71 256 -154 226 -227 224 -568 -4 -796 -110
-110 -240 -164 -396 -164 -156 0 -286 54 -396 164 -178 178 -221 427 -112 652
40 84 157 206 238 249 119 63 283 83 414 49z"/>
<path d="M743 4259 c-49 -14 -83 -62 -83 -116 0 -60 45 -108 111 -118 24 -3
190 -5 369 -3 319 3 326 3 357 26 66 47 66 147 0 194 -32 23 -34 23 -377 25
-193 1 -359 -2 -377 -8z"/>
</g>
</svg>
